<?xml version="1.0" standalone="no"?>
<!DOCTYPE svg PUBLIC "-//W3C//DTD SVG 20010904//EN"
 "http://www.w3.org/TR/2001/REC-SVG-20010904/DTD/svg10.dtd">
<svg version="1.0" xmlns="http://www.w3.org/2000/svg"
 width="1216.000000pt" height="1216.000000pt" viewBox="0 0 1216.000000 1216.000000"
 preserveAspectRatio="xMidYMid meet">
<metadata>
Created by potrace 1.11, written by Peter Selinger 2001-2013
</metadata>
<g transform="translate(0.000000,1216.000000) scale(0.100000,-0.100000)"
fill="#000000" stroke="none">
<path d="M4390 10640 c-4 -3 -7 -184 -8 -402 l0 -398 182 0 183 0 -1 -641 -1
-641 -225 -130 c-124 -72 -245 -142 -270 -156 -25 -13 -72 -40 -105 -60 -60
-35 -167 -97 -485 -280 -91 -52 -181 -105 -201 -116 -20 -12 -118 -68 -218
-126 -101 -58 -195 -112 -209 -121 -15 -9 -50 -29 -78 -45 -29 -16 -138 -78
-242 -139 l-191 -110 2 -1964 2 -1964 265 -154 c146 -84 276 -159 290 -167 14
-7 140 -80 280 -161 140 -81 282 -163 315 -182 33 -18 67 -38 75 -43 16 -10
104 -61 160 -92 19 -11 103 -59 185 -107 174 -102 868 -502 923 -533 20 -11
74 -42 120 -69 45 -27 87 -49 92 -49 6 0 10 -4 10 -10 0 -5 4 -10 10 -10 5 0
47 -22 92 -49 46 -27 99 -57 118 -68 19 -11 107 -62 195 -113 88 -52 185 -107
215 -123 l56 -30 109 63 c172 99 676 390 713 411 18 11 63 37 100 58 77 44
875 505 1387 801 193 111 368 212 390 225 22 12 67 38 100 57 33 20 83 49 111
64 271 152 483 280 486 293 2 9 4 894 4 1966 l-1 1950 -115 67 c-63 37 -122
71 -130 75 -8 4 -89 50 -180 103 -91 53 -277 161 -415 239 -137 79 -270 156
-295 171 -25 15 -227 132 -450 260 -223 128 -458 264 -522 302 l-118 69 0 639
0 640 182 2 183 3 0 393 c0 252 -4 396 -10 400 -12 7 -3053 9 -3065 2z m2180
-1625 l0 -761 83 -47 c45 -26 100 -58 122 -71 22 -13 114 -66 205 -118 91 -52
224 -129 295 -170 253 -147 521 -301 566 -327 58 -33 331 -191 367 -212 15 -9
47 -27 72 -41 25 -14 151 -87 281 -162 l235 -136 0 -972 -1 -973 -380 -3 -380
-2 -31 47 c-52 80 -114 259 -195 563 -22 85 -42 162 -44 170 -10 41 -78 283
-96 340 -129 398 -275 599 -487 670 -72 24 -194 28 -263 10 -173 -46 -309
-197 -426 -470 -54 -127 -157 -458 -198 -638 -8 -36 -85 -352 -115 -477 -18
-71 -33 -137 -35 -145 -36 -171 -158 -552 -205 -645 l-20 -39 -34 75 c-45 98
-170 507 -201 659 -2 8 -10 42 -18 75 -9 33 -18 71 -21 85 -7 33 -9 42 -46
195 -17 72 -33 137 -35 145 -10 48 -89 340 -115 425 -114 373 -234 585 -391
692 -124 85 -304 98 -451 33 -198 -87 -343 -324 -473 -775 -14 -49 -28 -97
-30 -105 -2 -8 -17 -67 -34 -130 -124 -470 -175 -624 -239 -722 l-25 -38 -378
0 -379 0 0 974 0 974 38 23 c20 13 46 28 57 34 85 48 246 141 325 187 294 170
392 227 746 431 214 123 463 267 554 319 91 53 181 105 200 116 19 10 96 55
170 98 l135 79 0 755 c-1 415 0 758 1 761 2 3 294 6 649 6 l645 0 0 -762z
m-1732 -2807 c55 -116 103 -267 181 -568 34 -130 146 -590 156 -640 12 -58 83
-318 116 -425 138 -440 291 -658 509 -724 147 -45 322 3 442 121 163 160 278
436 419 1008 33 135 92 373 130 530 39 157 91 350 116 430 46 150 119 330 133
330 5 0 20 -24 34 -54 57 -120 122 -327 216 -691 47 -181 65 -240 122 -410
123 -367 285 -564 501 -609 44 -10 172 -14 447 -14 212 -1 396 -1 411 -2 l25
0 0 -418 0 -418 -155 -90 c-85 -49 -175 -101 -200 -116 -25 -15 -57 -33 -71
-41 -41 -23 -90 -51 -292 -168 -106 -61 -209 -121 -228 -132 -19 -11 -123 -71
-232 -133 -108 -62 -218 -125 -245 -140 -26 -15 -52 -30 -58 -34 -5 -4 -26
-17 -45 -28 -58 -33 -478 -275 -750 -432 -140 -81 -271 -157 -290 -168 -19
-11 -80 -46 -135 -77 -55 -32 -116 -67 -136 -78 l-35 -21 -60 34 c-32 18 -198
114 -369 213 -170 99 -330 191 -355 205 -25 14 -108 62 -185 107 -175 101
-126 73 -490 283 -170 98 -330 190 -355 204 -25 14 -142 81 -260 150 -118 68
-347 200 -507 293 l-293 169 0 418 0 418 58 0 c737 3 805 5 871 28 192 69 324
239 443 572 34 96 96 300 104 344 3 16 7 33 10 38 3 5 7 18 10 31 4 22 93 348
119 437 42 142 119 330 136 330 4 0 20 -28 37 -62z"/>
</g>
</svg>
