<?xml version="1.0" encoding="UTF-8" standalone="no"?>
<!DOCTYPE svg PUBLIC "-//W3C//DTD SVG 1.1//EN" "http://www.w3.org/Graphics/SVG/1.1/DTD/svg11.dtd">
<svg width="100%" height="100%" viewBox="0 0 999 385" version="1.1" xmlns="http://www.w3.org/2000/svg" xmlns:xlink="http://www.w3.org/1999/xlink" xml:space="preserve" style="fill-rule:evenodd;clip-rule:evenodd;stroke-linejoin:round;stroke-miterlimit:1.41421;">
    <g transform="matrix(1,0,0,1,33.9329,-348.239)">
        <g id="Layer-1">
            <clipPath id="_clip1">
                <path d="M85.527,389.779L85.527,411.794L95.495,411.794L95.495,446.883L34.561,482.062L34.561,589.619L127.706,643.393L220.852,589.619L220.852,482.062L159.92,446.883L159.92,411.794L169.888,411.794L169.888,389.779L85.527,389.779ZM49.034,490.417L109.967,455.238L109.967,413.516L145.448,413.516L145.448,455.238L206.38,490.417L206.38,543.821L185.576,543.821C183.079,541.632 180.212,530.535 178.651,524.492C174.797,509.563 170.808,494.126 158.005,494.126C145.074,494.126 140.768,512.41 135.781,533.58C133.774,542.098 130.591,555.612 127.642,560.612C124.692,555.612 121.51,542.098 119.504,533.581C114.518,512.41 110.211,494.126 97.28,494.126C84.471,494.126 80.462,509.605 76.585,524.573C75.031,530.573 72.179,541.582 69.71,543.821L49.034,543.821L49.034,490.417ZM49.034,581.262L49.034,558.294L70.223,558.294C82.807,558.266 86.765,542.983 90.594,528.203C92.044,522.605 94.601,512.733 96.98,509.388C100.012,513.945 103.344,528.094 105.418,536.9C110.404,558.069 114.71,576.354 127.642,576.354C140.572,576.354 144.879,558.069 149.866,536.899C151.942,528.095 155.272,513.949 158.305,509.39C160.667,512.727 163.201,522.544 164.64,528.111C168.469,542.94 172.428,558.271 185.123,558.294L206.38,558.294L206.38,581.262L127.706,626.683L49.034,581.262Z"/>
            </clipPath>
            <g clip-path="url(#_clip1)">
                <path d="M-33.933,532.146L120.383,348.239L298.197,497.443L143.881,681.349L-33.933,532.146Z" style="fill:url(#_Linear2);fill-rule:nonzero;"/>
            </g>
            <clipPath id="_clip3">
                <path d="M707.958,584.793C705.752,586.608 704.65,588.958 704.65,591.838C704.65,593.866 705.245,595.477 706.437,596.669C707.629,597.86 709.123,598.822 710.92,599.549C712.715,600.279 714.656,600.876 716.737,601.338C718.818,601.799 720.757,602.3 722.553,602.833C724.351,603.366 725.844,604.043 727.037,604.86C728.229,605.68 728.824,606.801 728.824,608.222C728.824,612.384 725.516,614.466 718.898,614.466C715.731,614.466 713.188,613.914 711.267,612.813C709.06,611.531 707.887,609.681 707.745,607.263L703.582,607.263C703.903,610.676 705.218,613.311 707.531,615.16C710.128,617.224 713.899,618.254 718.845,618.254C723.22,618.254 726.645,617.385 729.118,615.642C731.59,613.897 732.826,611.37 732.826,608.064C732.826,605.287 731.564,603.1 729.039,601.499C727.899,600.75 726.601,600.137 725.142,599.656C723.683,599.178 722.199,598.749 720.686,598.377C719.173,598.002 717.688,597.638 716.23,597.282C714.771,596.927 713.472,596.517 712.335,596.055C711.194,595.593 710.279,595.022 709.586,594.348C708.892,593.673 708.545,592.933 708.545,592.133C708.545,591.332 708.66,590.576 708.892,589.866C709.123,589.153 709.577,588.503 710.253,587.916C710.928,587.328 711.88,586.831 713.108,586.423C714.336,586.014 715.847,585.807 717.644,585.807C719.439,585.807 720.944,585.987 722.154,586.343C725.569,587.302 727.455,589.243 727.81,592.159L731.92,592.159C731.776,589.314 730.586,586.983 728.345,585.168C725.889,583.105 722.421,582.072 717.938,582.072C713.49,582.072 710.163,582.979 707.958,584.793ZM633.514,582.501L633.514,617.828L650.27,617.828C652.297,617.828 654.059,617.579 655.554,617.082C660.071,615.658 662.331,612.813 662.331,608.541C662.331,607.227 662.134,606.071 661.743,605.074C660.676,602.513 658.682,600.75 655.766,599.791C658.932,598.367 660.516,595.716 660.516,591.838C660.516,589.314 659.697,587.231 658.061,585.594C656.068,583.531 653.169,582.501 649.363,582.501L633.514,582.501ZM637.515,586.288L649.79,586.288C652.066,586.288 653.792,586.912 654.966,588.157C655.5,588.69 655.891,589.304 656.14,589.998C656.388,590.692 656.514,591.493 656.514,592.4C656.514,593.307 656.317,594.153 655.926,594.935C654.824,597.175 652.635,598.296 649.363,598.296L637.515,598.296L637.515,586.288ZM637.515,601.926L650.27,601.926C652.938,601.926 654.984,602.565 656.407,603.846C657.688,604.986 658.328,606.443 658.328,608.222C658.328,610.072 657.669,611.505 656.354,612.519C655.037,613.533 653.152,614.04 650.697,614.04L637.515,614.04L637.515,601.926ZM571.663,582.501L556.666,617.828L561.096,617.828L565.419,607.582L582.923,607.582L587.245,617.828L591.675,617.828L576.679,582.501L571.663,582.501ZM574.171,586.662L581.375,603.898L566.967,603.898L574.171,586.662ZM495.03,582.501L495.03,617.828L518.297,617.828L518.297,613.986L499.031,613.986L499.031,582.501L495.03,582.501Z"/>
            </clipPath>
            <g clip-path="url(#_clip3)">
                <path d="M477.635,603.232L590.149,469.142L744.428,598.598L631.913,732.687L477.635,603.232Z" style="fill:url(#_Linear4);fill-rule:nonzero;"/>
            </g>
            <path d="M294.937,504.966L273.753,476.9L263.769,476.9L263.769,540.547L273.306,540.547L273.306,492.495L294.954,519.882L316.218,492.544L316.218,540.547L325.754,540.547L325.754,476.9L315.763,476.9L294.937,504.966Z" style="fill:rgb(82,99,116);fill-rule:nonzero;"/>
            <path d="M396.865,525.242C392.659,529.68 387.056,531.93 380.211,531.93C373.365,531.93 367.762,529.68 363.559,525.243C359.515,520.971 357.465,515.413 357.465,508.723C357.465,502.036 359.515,496.479 363.558,492.205C367.764,487.766 373.367,485.516 380.211,485.516C387.055,485.516 392.658,487.766 396.864,492.204C400.908,496.481 402.958,502.039 402.958,508.723C402.958,515.41 400.908,520.968 396.865,525.242M380.211,476.164C370.787,476.164 362.932,479.37 356.87,485.688C350.936,491.812 347.928,499.563 347.928,508.723C347.928,517.881 350.936,525.632 356.866,531.755C362.932,538.078 370.787,541.284 380.211,541.284C389.635,541.284 397.489,538.078 403.553,531.76C409.487,525.632 412.495,517.881 412.495,508.723C412.495,499.563 409.486,491.812 403.557,485.692C397.489,479.37 389.635,476.164 380.211,476.164" style="fill:rgb(82,99,116);fill-rule:nonzero;"/>
            <path d="M557.539,513.149C557.539,519.373 555.697,524.227 552.069,527.572C548.892,530.464 544.754,531.93 539.771,531.93C534.788,531.93 530.685,530.467 527.579,527.585C523.888,524.125 522.094,519.402 522.094,513.149L522.094,476.9L512.556,476.9L512.556,512.964C512.556,521.394 515.116,528.293 520.165,533.469C525.223,538.654 531.819,541.284 539.771,541.284C547.781,541.284 554.409,538.654 559.468,533.469C564.516,528.291 567.076,521.392 567.076,512.964L567.076,476.9L557.539,476.9L557.539,513.149Z" style="fill:rgb(82,99,116);fill-rule:nonzero;"/>
            <path d="M601.92,476.9L592.383,476.9L592.383,540.547L635.196,540.547L635.196,531.285L601.92,531.285L601.92,476.9Z" style="fill:rgb(82,99,116);fill-rule:nonzero;"/>
            <path d="M718.388,486.162L739.68,486.162L739.68,540.547L749.219,540.547L749.219,486.162L770.513,486.162L770.513,476.9L718.388,476.9L718.388,486.162Z" style="fill:rgb(82,99,116);fill-rule:nonzero;"/>
            <rect x="790.379" y="476.9" width="9.537" height="63.647" style="fill:rgb(82,99,116);fill-rule:nonzero;"/>
            <path d="M871.025,525.242C866.759,529.743 861.312,531.93 854.372,531.93C847.526,531.93 841.923,529.68 837.72,525.243C833.676,520.969 831.626,515.412 831.626,508.723C831.626,502.038 833.676,496.479 837.719,492.205C841.924,487.766 847.527,485.516 854.372,485.516C861.311,485.516 866.758,487.703 871.024,492.204C875.068,496.479 877.118,502.038 877.118,508.723C877.118,515.412 875.068,520.969 871.025,525.242M854.372,476.164C844.949,476.164 837.095,479.37 831.03,485.688C825.097,491.812 822.089,499.563 822.089,508.723C822.089,517.882 825.097,525.632 831.026,531.755C837.095,538.078 844.949,541.284 854.372,541.284C863.795,541.284 871.65,538.078 877.715,531.76C883.647,525.632 886.655,517.882 886.655,508.723C886.655,499.563 883.647,491.812 877.718,485.692C871.65,479.37 863.795,476.164 854.372,476.164" style="fill:rgb(82,99,116);fill-rule:nonzero;"/>
            <path d="M954.547,476.9L954.547,525.553L918.823,476.9L908.828,476.9L908.828,540.547L918.365,540.547L918.365,491.722L953.695,540.009L954.088,540.547L964.086,540.547L964.086,476.9L954.547,476.9Z" style="fill:rgb(82,99,116);fill-rule:nonzero;"/>
            <path d="M674.404,476.9L647.387,540.547L657.892,540.547L679.602,488.793L701.315,540.547L711.821,540.547L684.806,476.9L674.404,476.9Z" style="fill:rgb(82,99,116);fill-rule:nonzero;"/>
            <path d="M472.703,479.074C469.18,477.631 465.477,476.9 461.697,476.9L434.668,476.9L434.668,486.07L461.42,486.07C467.46,486.07 472.228,488.239 475.999,492.705C479.645,496.988 481.494,502.378 481.494,508.723C481.494,515.07 479.645,520.459 475.996,524.746C472.229,529.209 467.461,531.378 461.42,531.378L444.205,531.378L444.205,510.115L434.668,510.115L434.668,540.547L461.697,540.547C465.477,540.547 469.18,539.815 472.702,538.374C476.231,536.931 479.388,534.8 482.085,532.039C488.021,525.976 491.031,518.132 491.031,508.723C491.031,499.317 488.021,491.471 482.085,485.406C479.386,482.646 476.23,480.515 472.703,479.074" style="fill:rgb(82,99,116);fill-rule:nonzero;"/>
        </g>
    </g>
    <defs>
        <linearGradient id="_Linear2" x1="0" y1="0" x2="1" y2="0" gradientUnits="userSpaceOnUse" gradientTransform="matrix(154.315,-183.906,183.906,154.315,54.9743,606.747)"><stop offset="0" style="stop-color:rgb(0,172,246);stop-opacity:1"/><stop offset="1" style="stop-color:rgb(0,222,237);stop-opacity:1"/></linearGradient>
        <linearGradient id="_Linear4" x1="0" y1="0" x2="1" y2="0" gradientUnits="userSpaceOnUse" gradientTransform="matrix(112.483,-134.052,134.052,112.483,554.596,667.81)"><stop offset="0" style="stop-color:rgb(0,172,246);stop-opacity:1"/><stop offset="1" style="stop-color:rgb(0,222,237);stop-opacity:1"/></linearGradient>
    </defs>
</svg>
