<?xml version="1.0" encoding="UTF-8" standalone="no"?>
<!DOCTYPE svg PUBLIC "-//W3C//DTD SVG 1.1//EN" "http://www.w3.org/Graphics/SVG/1.1/DTD/svg11.dtd">
<svg width="100%" height="100%" viewBox="0 0 1113 1113" version="1.1" xmlns="http://www.w3.org/2000/svg" xmlns:xlink="http://www.w3.org/1999/xlink" xml:space="preserve" style="fill-rule:evenodd;clip-rule:evenodd;stroke-linejoin:round;stroke-miterlimit:1.41421;">
    <g transform="matrix(1,0,0,1,-2648.14,-468.97)">
        <g transform="matrix(4.16667,0,0,4.16667,0,0)">
            <path d="M887.717,112.553L650.283,112.553C642.147,112.553 635.553,119.147 635.553,127.283L635.553,364.717C635.553,372.852 642.147,379.448 650.283,379.448L778.11,379.448L778.11,276.092L743.328,276.092L743.328,235.812L778.11,235.812L778.11,206.107C778.11,171.635 799.164,152.864 829.916,152.864C844.647,152.864 857.307,153.96 860.996,154.45L860.996,190.476L839.668,190.486C822.944,190.486 819.705,198.433 819.705,210.095L819.705,235.812L859.592,235.812L854.399,276.092L819.705,276.092L819.705,379.448L887.717,379.448C895.852,379.448 902.447,372.852 902.447,364.717L902.447,127.283C902.447,119.147 895.852,112.553 887.717,112.553" style="fill:white;fill-rule:nonzero;"/>
        </g>
    </g>
</svg>
