<?xml version="1.0" encoding="UTF-8" standalone="no"?>
<!DOCTYPE svg PUBLIC "-//W3C//DTD SVG 1.1//EN" "http://www.w3.org/Graphics/SVG/1.1/DTD/svg11.dtd">
<svg width="100%" height="100%" viewBox="0 0 504 491" version="1.1" xmlns="http://www.w3.org/2000/svg" xmlns:xlink="http://www.w3.org/1999/xlink" xml:space="preserve" style="fill-rule:evenodd;clip-rule:evenodd;stroke-linejoin:round;stroke-miterlimit:1.41421;">
    <g transform="matrix(1,0,0,1,-1209.25,-1393.46)">
        <g transform="matrix(4.16667,0,0,4.16667,0,0)">
            <path d="M350.609,334.431C317.262,334.431 290.221,361.466 290.221,394.819C290.221,421.499 307.524,444.135 331.518,452.12C334.536,452.679 335.644,450.81 335.644,449.215C335.644,447.776 335.588,443.018 335.562,437.972C318.762,441.625 315.217,430.847 315.217,430.847C312.47,423.868 308.512,422.011 308.512,422.011C303.033,418.263 308.925,418.34 308.925,418.34C314.989,418.766 318.182,424.564 318.182,424.564C323.568,433.795 332.309,431.126 335.755,429.583C336.298,425.681 337.862,423.016 339.589,421.508C326.176,419.982 312.076,414.803 312.076,391.664C312.076,385.072 314.435,379.685 318.298,375.456C317.671,373.934 315.604,367.792 318.884,359.474C318.884,359.474 323.955,357.852 335.494,365.665C340.311,364.327 345.477,363.656 350.609,363.632C355.741,363.656 360.911,364.327 365.737,365.665C377.263,357.852 382.327,359.474 382.327,359.474C385.614,367.792 383.547,373.934 382.92,375.456C386.792,379.685 389.134,385.072 389.134,391.664C389.134,414.859 375.007,419.965 361.56,421.46C363.726,423.334 365.656,427.009 365.656,432.643C365.656,440.723 365.587,447.226 365.587,449.215C365.587,450.823 366.673,452.706 369.734,452.113C393.716,444.119 410.997,421.491 410.997,394.819C410.997,361.466 383.96,334.431 350.609,334.431" style="fill:white;"/>
        </g>
    </g>
</svg>
