<?xml version="1.0" encoding="UTF-8" standalone="no"?>
<!DOCTYPE svg PUBLIC "-//W3C//DTD SVG 1.1//EN" "http://www.w3.org/Graphics/SVG/1.1/DTD/svg11.dtd">
<svg width="100%" height="100%" viewBox="0 0 400 400" version="1.1" xmlns="http://www.w3.org/2000/svg" xmlns:xlink="http://www.w3.org/1999/xlink" xml:space="preserve" style="fill-rule:evenodd;clip-rule:evenodd;stroke-linejoin:round;stroke-miterlimit:1.41421;">
    <g transform="matrix(1,0,0,1,-30.1183,-21.498)">
        <g id="svgg" transform="matrix(1,0,0,1,30.1183,21.498)">
            <path id="path1" d="M119.6,262.06C114.803,263.202 111.28,264.517 108.616,266.16C106.975,267.172 105.402,268 105.122,268C103.137,268 93.953,278.732 91.43,284C85.197,297.011 86.67,311.079 95.533,323.2C99.694,328.89 107.51,336.126 117.2,343.258C119.84,345.201 122.18,346.974 122.4,347.198C123.246,348.058 131.819,353.462 136.4,356.022C155.193,366.526 172.016,372.472 195,376.735C207.805,379.111 237.832,379.178 251.064,376.861C253.559,376.424 256.5,375.906 257.6,375.709C265.491,374.297 283.971,368.669 290.8,365.598C302.416,360.373 322.231,349.44 324,347.28C324.22,347.011 327.251,344.669 330.735,342.075C359.348,320.773 366.281,298.964 351.115,277.973C336.443,257.666 311.367,256.233 291.34,274.555C282.137,282.975 263.3,294.515 256,296.205C254.9,296.46 252.02,297.266 249.6,297.997C241.96,300.305 232.704,301.567 223.292,301.584C211.678,301.604 205.98,300.701 192,296.624C187.458,295.299 173.182,288.176 167.809,284.554C162.021,280.652 162.68,281.199 155.097,273.996C149.816,268.979 145.508,266.265 138,263.222C135.516,262.216 122.419,261.388 119.6,262.06" style="fill:rgb(255,52,66);"/>
            <path id="path2" d="M89.996,89.126C89.558,89.746 86.511,93.796 83.224,98.126C73.188,111.348 66.78,122.337 61.605,135.2C60.631,137.62 59.538,140.32 59.175,141.2C56.95,146.59 53.116,159.413 51.878,165.6C48.887,180.554 48.551,183.812 48.231,200.963C47.779,225.239 51.514,247.435 59.175,266C59.538,266.88 60.628,269.58 61.596,272C67.37,286.422 75.884,300.272 88.919,316.448C93.954,322.697 97.602,326.173 94.325,321.6C84.943,308.506 85.427,291.688 95.594,277.537C98.58,273.381 103.955,268 105.122,268C105.402,268 106.975,267.172 108.616,266.16C115.299,262.038 130.721,260.407 137.6,263.094C143.084,265.236 146.03,266.646 148.2,268.167C151.221,270.284 150.956,269.331 147.48,265.575C138.948,256.353 132.327,242.931 127.17,224.4C124.399,214.446 124.656,192.562 127.681,180.8C130.236,170.865 130.752,169.491 135.59,159.763C139.012,152.881 141.619,148.862 147.941,140.723L149.554,138.646L144.577,141.165C118.146,154.542 87.999,136.428 88.001,107.17C88.001,98.532 89.29,92.043 91.43,89.903C92.18,89.153 92.16,88 91.396,88C91.064,88 90.434,88.507 89.996,89.126" style="fill:rgb(248,244,0);"/>
            <path id="path3" d="M202,29.267C191.18,30.687 187.794,31.401 173.2,35.34C138.455,44.718 97.033,73.91 89.357,94.427C86.494,102.078 87.408,115.146 91.364,123.132C104.215,149.073 134.387,153.415 155.967,132.43C193.429,96.001 252.937,96.483 292.409,133.535C327.094,166.094 378.852,122.764 351.122,84.383C346.278,77.678 337.526,69.752 325.2,60.907C306.101,47.202 287.737,38.774 264,32.822C245.925,28.289 220.549,26.834 202,29.267M133.253,68.873C145.935,71.206 155.814,79.104 162.181,92C164.784,97.273 165.44,113.855 163.256,119.2C161.269,124.062 150.414,137.6 148.503,137.6C148.209,137.6 146.625,138.434 144.984,139.452C137.947,143.82 118.349,145.869 115.061,142.581C114.521,142.041 113.415,141.6 112.602,141.6C107.211,141.6 96.212,130.966 91.916,121.6C79.656,94.872 104.225,63.534 133.253,68.873" style="fill:rgb(39,183,228);"/>
            <path id="path4" d="M117.243,69.326C98.72,73.797 84.128,98.509 89.716,115.943C93.596,128.049 105.683,141.6 112.602,141.6C113.415,141.6 114.521,142.041 115.061,142.581C118.349,145.869 137.947,143.82 144.984,139.452C146.625,138.434 148.209,137.6 148.503,137.6C150.414,137.6 161.269,124.062 163.256,119.2C165.44,113.855 164.784,97.273 162.181,92C153.114,73.636 135.729,64.863 117.243,69.326" style="fill:rgb(0,129,186);"/>
        </g>
    </g>
</svg>
