<?xml version="1.0" encoding="UTF-8" standalone="no"?>
<!DOCTYPE svg PUBLIC "-//W3C//DTD SVG 1.1//EN" "http://www.w3.org/Graphics/SVG/1.1/DTD/svg11.dtd">
<svg width="100%" height="100%" viewBox="0 0 680 926" version="1.1" xmlns="http://www.w3.org/2000/svg" xmlns:xlink="http://www.w3.org/1999/xlink" xml:space="preserve" xmlns:serif="http://www.serif.com/" style="fill-rule:evenodd;clip-rule:evenodd;stroke-linejoin:round;stroke-miterlimit:1.41421;">
    <g transform="matrix(1,0,0,1,-155.794,-40.123)">
        <g transform="matrix(562.837,-670.763,-670.763,-562.837,230.247,831.475)">
            <g id="Layer-1" serif:id="Layer 1">
                <path d="M0.774,0.483L0.704,0.424L0.731,0.393L0.619,0.299L0.343,0.399L0,0.111L0.078,-0.33L0.499,-0.483L0.842,-0.195L0.791,0.093L0.903,0.187L0.93,0.155L1,0.214L0.774,0.483ZM0.355,0.33L0.631,0.23L0.764,0.342L0.859,0.229L0.726,0.117L0.777,-0.172L0.606,-0.315L0.55,-0.248C0.551,-0.234 0.579,-0.196 0.594,-0.174C0.631,-0.122 0.67,-0.068 0.635,-0.027C0.601,0.014 0.531,-0.021 0.45,-0.062C0.417,-0.078 0.366,-0.104 0.342,-0.108C0.35,-0.086 0.384,-0.039 0.406,-0.01C0.46,0.063 0.507,0.125 0.473,0.167C0.438,0.207 0.378,0.179 0.32,0.151C0.297,0.14 0.254,0.12 0.24,0.121L0.185,0.187L0.355,0.33ZM0.065,0.087L0.139,0.149L0.195,0.081C0.229,0.041 0.289,0.069 0.346,0.097C0.368,0.107 0.406,0.125 0.423,0.127C0.417,0.105 0.38,0.056 0.358,0.026C0.304,-0.047 0.257,-0.109 0.292,-0.15C0.326,-0.192 0.396,-0.157 0.477,-0.116C0.511,-0.099 0.565,-0.072 0.587,-0.069C0.583,-0.086 0.558,-0.12 0.545,-0.139C0.507,-0.191 0.469,-0.245 0.503,-0.286L0.56,-0.353L0.487,-0.415L0.131,-0.285L0.065,0.087Z" style="fill:url(#_Linear1);fill-rule:nonzero;"/>
            </g>
        </g>
    </g>
    <defs>
        <linearGradient id="_Linear1" x1="0" y1="0" x2="1" y2="0" gradientUnits="userSpaceOnUse" gradientTransform="matrix(1,5.55112e-17,5.55112e-17,-1,0,6.65648e-07)"><stop offset="0" style="stop-color:rgb(0,172,246);stop-opacity:1"/><stop offset="0.06" style="stop-color:rgb(0,172,246);stop-opacity:1"/><stop offset="1" style="stop-color:rgb(0,222,237);stop-opacity:1"/></linearGradient>
    </defs>
</svg>
